<svg width="586" height="60" xmlns="http://www.w3.org/2000/svg" viewBox="0 0 586 60">
  <g fill="#F26522" fill-rule="nonzero">
    <path d="M.4 45.5V3H17c6.4 0 13 2.9 13 10.7 0 4.8-3 8-7.4 9.3v.1c5.3.7 9.2 4.3 9.2 10 0 9.2-8 12.4-16.1 12.4H.4zm14.3-25.2c5 0 7.7-2.1 7.7-5.8 0-3.8-2.7-5.3-8.4-5.3H8v11h6.7v.1zm.1 18.8c3.9 0 9.5-.8 9.5-6.4 0-4.4-3.1-6-9.2-6H8v12.4h6.8zM37.4 45.5V.1h7.2v45.4zM65.5 46.3c-8.7 0-15.7-6.3-15.7-15.4 0-9.1 7-15.1 15.7-15.1s15.7 6.1 15.7 15.1-7 15.4-15.7 15.4zM73.8 31c0-4.5-2.6-9.2-8.3-9.2-5.7 0-8.3 4.7-8.3 9.2 0 4.5 2.6 9.4 8.3 9.4 5.7-.1 8.3-4.9 8.3-9.4zM100.3 46.3c-8.7 0-15.7-6.3-15.7-15.4 0-9.1 7-15.1 15.7-15.1S116 21.9 116 30.9s-7 15.4-15.7 15.4zm8.3-15.3c0-4.5-2.6-9.2-8.3-9.2-5.7 0-8.3 4.7-8.3 9.2 0 4.5 2.6 9.4 8.3 9.4 5.7 0 8.3-4.9 8.3-9.4zM158.2 45.5v-16c0-3.4-.8-7.7-5.4-7.7-4.5 0-6.4 4.2-6.4 7.9v15.7h-7.2V28c0-3.5-1.7-6.2-5.3-6.2-4.3 0-6.3 4-6.3 7.8v15.8h-7.2V16.6h6.8v4.6h.1c1.3-2.8 4.3-5.5 8.9-5.5 4.4 0 7.4 2.2 9 5.5 1.9-3.5 5.2-5.5 9.5-5.5 7.5 0 10.6 5.8 10.6 11.6v18h-7.1v.2zM170.9 45.5V.1h7.2v20.2h.2c1.5-1.9 4.4-4.5 9.7-4.5 8.2 0 14 6.6 14 15.1 0 8.4-5.4 15.4-14.2 15.4-4 0-7.9-1.9-9.9-5.2h-.1v4.3h-6.9v.1zM194.6 31c0-4.5-2.7-9.2-8.3-9.2-5.3 0-8.5 4.9-8.5 9.4s3.2 9.2 8.5 9.2c5.6-.1 8.3-4.9 8.3-9.4zM212.3 33.4c.3 4.1 4 7.1 8.2 7.1 3.6 0 6-1.4 7.6-3.7l4.8 3.8c-2.8 3.8-6.9 5.8-12.4 5.8-8.9 0-15.5-5.7-15.5-15.1 0-9.3 6.5-15.4 15.2-15.4 8 0 13.9 5.2 13.9 15.6 0 .7 0 1.3-.1 1.9h-21.7zm14.7-5.2c0-3.7-2.1-7-6.8-7-4.3 0-7.7 2.9-8 7H227zM239.1 45.5V16.7h6.9v4.8h.1c1.6-3.3 4.6-5.6 8.4-5.6.5 0 1.3.1 1.7.2v6.6c-1-.2-1.6-.3-2.2-.3-6.5 0-7.7 5.6-7.7 7.7v15.4h-7.2zM281.5 41.6h-.1c-2.1 2.8-5.5 4.3-9.4 4.3-8.6 0-14.2-6.8-14.2-15 0-8.3 5.4-15.1 14.1-15.1 4 0 7.8 1.7 9.9 5.2h.1v-4.3h6.8v26.2c0 10.4-5 17-16.3 17-4.7 0-10.6-1.7-14.3-4.7l4.1-5.6c2.8 2.6 6.5 4.1 10.1 4.1 7 0 9.1-4.2 9.1-9.9v-2.2h.1zm.3-10.7c0-5-3.3-9.2-8.5-9.2s-8.3 4.1-8.3 9.2c0 4.6 3.1 9.1 8.2 9.1 5.4 0 8.6-4.3 8.6-9.1zM341 45.5l-4-9.7h-18.4l-3.8 9.7h-8.5L324.8 3h6.5l18.3 42.5H341zM327.9 12l-6.7 17.3h13.2L327.9 12zM370.2 24.4c-1.3-1.7-3.7-3.1-6.3-3.1-2.3 0-4.6.8-4.6 3.1 0 2.2 2.2 2.8 6.2 3.8 4.3 1 9.3 2.9 9.3 8.6 0 7-5.7 9.6-12 9.6-4.4 0-9.1-1.7-11.8-4.7l4.7-4.4c1.6 2 4.3 3.6 7.4 3.6 2.1 0 4.6-.8 4.6-3.4 0-2.4-2.2-3.1-6.6-4.1-4.3-1-8.5-2.8-8.5-8.2 0-6.4 5.8-9.2 11.5-9.2 4.1 0 8.5 1.4 10.8 4.4l-4.7 4zM395.9 24.4c-1.3-1.7-3.7-3.1-6.3-3.1-2.3 0-4.6.8-4.6 3.1 0 2.2 2.2 2.8 6.2 3.8 4.3 1 9.3 2.9 9.3 8.6 0 7-5.7 9.6-12 9.6-4.4 0-9.1-1.7-11.8-4.7l4.7-4.4c1.6 2 4.3 3.6 7.4 3.6 2.1 0 4.6-.8 4.6-3.4 0-2.4-2.2-3.1-6.6-4.1-4.3-1-8.5-2.8-8.5-8.2 0-6.4 5.8-9.2 11.5-9.2 4.1 0 8.5 1.4 10.8 4.4l-4.7 4zM419.1 46.3c-8.7 0-15.7-6.3-15.7-15.4 0-9.1 7-15.1 15.7-15.1s15.7 6.1 15.7 15.1-7 15.4-15.7 15.4zm8.3-15.3c0-4.5-2.6-9.2-8.3-9.2-5.7 0-8.3 4.7-8.3 9.2 0 4.5 2.6 9.4 8.3 9.4 5.7-.1 8.3-4.9 8.3-9.4zM464.2 42.3c-2.4 2.6-6.4 4-10.6 4-8.5 0-15.6-5.6-15.6-15.2 0-9.4 7-15.2 15.4-15.2 4.2 0 8.6 1.7 10.9 4.5l-4.9 4.3c-1.1-1.6-3.6-2.8-5.9-2.8-5.3 0-7.9 4.7-7.9 9.2 0 4.5 2.7 9.2 8.2 9.2 2.2 0 4.7-.9 6.1-2.6l4.3 4.6zM472.3 11.2c-2.6 0-4.6-2-4.6-4.3s1.9-4.3 4.6-4.3c2.7 0 4.7 1.9 4.7 4.3s-2.1 4.3-4.7 4.3zm-3.6 34.3V16.7h7.2v28.8h-7.2zM500.5 45.5v-3.7h-.2c-1.4 2.5-4.9 4.4-8.9 4.4-4.6 0-10.8-2.2-10.8-8.9 0-8.6 10.8-9.8 19.8-9.8v-.7c0-3.5-3-5.3-6.6-5.3-3.1 0-6 1.4-7.9 3.3l-3.7-4.4c3.2-3 7.8-4.6 12.2-4.6 10.3 0 12.8 6.4 12.8 12.1v17.5h-6.7v.1zm-.2-13.2h-1.6c-4.6 0-11 .5-11 4.8 0 2.8 2.6 3.6 5 3.6 4.9 0 7.6-2.8 7.6-7.4v-1zM528.8 45.3c-1.3.5-3.2.8-4.8.8-7.6 0-9.4-4.7-9.4-10.2V22.5h-5v-5.8h5V8.4h7.1v8.3h7.2v5.8h-7.2v13.4c0 2.6.6 4.4 3.8 4.4 1 0 2.2-.2 3.1-.6l.2 5.6zM537.8 33.4c.3 4.1 4 7.1 8.2 7.1 3.6 0 6-1.4 7.6-3.7l4.8 3.8c-2.8 3.8-6.9 5.8-12.4 5.8-8.9 0-15.5-5.7-15.5-15.1 0-9.3 6.5-15.4 15.2-15.4 8 0 13.9 5.2 13.9 15.6 0 .7 0 1.3-.1 1.9h-21.7zm14.7-5.2c0-3.7-2.1-7-6.8-7-4.3 0-7.7 2.9-8 7h14.8zM580.9 24.4c-1.3-1.7-3.7-3.1-6.3-3.1-2.3 0-4.6.8-4.6 3.1 0 2.2 2.2 2.8 6.2 3.8 4.3 1 9.3 2.9 9.3 8.6 0 7-5.7 9.6-12 9.6-4.4 0-9.1-1.7-11.8-4.7l4.7-4.4c1.6 2 4.3 3.6 7.4 3.6 2.1 0 4.6-.8 4.6-3.4 0-2.4-2.2-3.1-6.6-4.1-4.3-1-8.5-2.8-8.5-8.2 0-6.4 5.8-9.2 11.5-9.2 4.1 0 8.5 1.4 10.8 4.4l-4.7 4z"/>
  </g>
</svg>