<svg width="191" height="46" xmlns="http://www.w3.org/2000/svg" viewBox="0 0 441.83 82.58"><defs><style>.header-class-2{fill:#fff;}.header-class-1{fill:#1a2a57;}.header-class-3{fill:#0f559f;}.header-class-4{fill:#9fbbd9;}</style></defs><g id="Layer_2" data-name="Layer 2"><g id="Logo"><polygon class="header-class-2" points="57.19 67.1 12.23 67.1 12.23 40.32 5.52 38.95 34.71 13.74 63.9 38.95 57.19 40.33 57.19 67.1"/><path class="header-class-1" d="M124.68,43.45H98.73V58.88h28.58l-1.21,8.33H89V13.67h36.9V22H98.73V35.13h26Z"/><path class="header-class-1" d="M132.88,37.44c0-3.41,0-7-.08-10h9.33A54.43,54.43,0,0,1,142.5,33c1.43-2.81,4.66-6.5,11.87-6.5,7.81,0,13.22,5.12,13.22,15.32V67.21H158V42.91c0-5-1.78-8.51-7.05-8.51-5.63,0-8.42,3.65-8.42,11V67.21h-9.62Z"/><path class="header-class-1" d="M171.19,27.41h6.39V16.31h9.62v11.1h8.13V34.8H187.2V55.67c0,3.3.93,4.75,4.32,4.75a17,17,0,0,0,2.83-.19V67a23,23,0,0,1-6.92.75c-7.23,0-9.85-3.84-9.85-10.68V34.8h-6.39Z"/><path class="header-class-1" d="M208.15,49.29c0,6,3,11.19,9,11.19,5.16,0,6.71-2.31,7.83-4.89h9.65c-1.46,4.95-5.78,12.54-17.75,12.54-12.9,0-18.39-9.92-18.39-20.29,0-12.27,6.25-21.36,18.8-21.36,13.39,0,17.89,10,17.89,19.48a26.94,26.94,0,0,1-.13,3.33Zm17.32-6.12c-.08-5.27-2.41-9.63-8.26-9.63s-8.31,4.06-8.83,9.63Z"/><path class="header-class-1" d="M241.9,38.21c0-4.49,0-7.88-.08-10.8h9.44c.13,1,.26,4.64.26,7.37,1.87-4.83,6.28-8.2,13-8.3v9.29c-8.05-.06-13,2.8-13,13.42v18H241.9Z"/><path class="header-class-1" d="M279.26,63.21V82.58h-9.57V37c0-3.22,0-6.47-.08-9.63h9.33a51.11,51.11,0,0,1,.32,5.4c1.85-3.29,5.57-6.33,12.05-6.33,9,0,15.86,7.56,15.86,19.82,0,14.1-7.7,21.83-17.34,21.83C283.94,68.13,280.87,65.82,279.26,63.21Zm18.11-16.54c0-7.67-3.25-12.35-9-12.35-6.92,0-9.49,4.42-9.49,13,0,8.2,2.26,13,9,13C294.18,60.37,297.37,55.35,297.37,46.67Z"/><path class="header-class-1" d="M313,38.21c0-4.49,0-7.88-.07-10.8h9.43c.13,1,.27,4.64.27,7.37,1.86-4.83,6.27-8.2,13-8.3v9.29c-8.05-.06-13,2.8-13,13.42v18H313Z"/><path class="header-class-1" d="M341.76,10.59h9.62V20h-9.62Zm0,16.82h9.62v39.8h-9.62Z"/><path class="header-class-1" d="M366.93,55.44c.94,3.56,3.74,5.61,8.28,5.61s6.42-1.82,6.42-4.64-1.75-4.19-8.09-5.74c-12.43-3.05-14.63-6.88-14.63-12.42,0-5.78,4.13-11.77,15.54-11.77s15.59,6.38,16,11.82h-9.19c-.43-1.84-1.73-4.89-7.23-4.89-4.29,0-5.63,2-5.63,4,0,2.31,1.37,3.44,8.11,5,12.87,3,14.93,7.38,14.93,13.24,0,6.72-5.19,12.41-16.57,12.41s-16.49-5.62-17.41-12.69Z"/><path class="header-class-1" d="M405,49.29c0,6,3.05,11.19,9,11.19,5.16,0,6.71-2.31,7.83-4.89h9.65c-1.46,4.95-5.78,12.54-17.75,12.54-12.9,0-18.39-9.92-18.39-20.29,0-12.27,6.25-21.36,18.8-21.36C427.5,26.48,432,36.51,432,46a26.94,26.94,0,0,1-.13,3.33Zm17.32-6.12c-.08-5.27-2.41-9.63-8.26-9.63s-8.3,4.06-8.83,9.63Z"/><polygon class="header-class-3" points="32.97 15.25 32.08 0 25.46 0 29.26 18.45 32.97 15.25"/><polygon class="header-class-3" points="21.61 25.05 5.13 0 0 0 0 5.89 19.02 27.3 21.61 25.05"/><polygon class="header-class-3" points="40.17 18.46 43.98 0 37.36 0 36.46 15.25 40.17 18.46"/><polygon class="header-class-3" points="26.66 20.69 19.8 0 12.18 0 23.79 23.18 26.66 20.69"/><polygon class="header-class-3" points="45.64 23.18 57.27 0 49.64 0 42.76 20.7 45.64 23.18"/><polygon class="header-class-3" points="55.22 31.46 69.42 22.11 69.42 14.11 52.52 29.13 55.22 31.46"/><polygon class="header-class-3" points="5.52 38.95 5.54 38.94 0 37.79 0 67.1 12.23 67.1 12.23 40.32 5.52 38.95"/><polygon class="header-class-3" points="60.82 36.29 69.42 33.44 69.42 27.55 57.58 33.49 60.82 36.29"/><polygon class="header-class-3" points="63.9 38.95 63.9 38.95 63.23 39.09 57.19 40.33 57.19 67.1 69.42 67.1 69.42 37.81 63.9 38.95"/><polygon class="header-class-3" points="50.41 27.3 69.42 5.93 69.42 0 64.32 0 47.81 25.06 50.41 27.3"/><polygon class="header-class-3" points="11.86 33.48 0 27.53 0 33.42 8.61 36.28 11.86 33.48"/><polygon class="header-class-3" points="16.91 29.12 0 14.08 0 22.09 14.21 31.45 16.91 29.12"/><polygon class="header-class-4" points="34.71 13.74 36.46 15.25 37.36 0 32.08 0 32.97 15.25 34.71 13.74"/><polygon class="header-class-4" points="29.26 18.45 25.46 0 19.8 0 26.66 20.69 29.26 18.45"/><polygon class="header-class-4" points="23.79 23.18 12.18 0 5.13 0 21.61 25.05 23.79 23.18"/><polygon class="header-class-4" points="19.02 27.3 0 5.89 0 14.08 16.91 29.12 19.02 27.3"/><polygon class="header-class-4" points="14.21 31.45 0 22.09 0 27.53 11.86 33.48 14.21 31.45"/><polygon class="header-class-4" points="8.61 36.28 0 33.42 0 37.79 5.54 38.94 8.61 36.28"/><polygon class="header-class-4" points="63.9 38.95 69.42 37.81 69.42 33.44 60.82 36.29 63.9 38.95"/><polygon class="header-class-4" points="57.58 33.49 69.42 27.55 69.42 22.11 55.22 31.46 57.58 33.49"/><polygon class="header-class-4" points="52.52 29.13 69.42 14.11 69.42 5.93 50.41 27.3 52.52 29.13"/><polygon class="header-class-4" points="47.81 25.06 64.32 0 57.27 0 45.64 23.18 47.81 25.06"/><polygon class="header-class-4" points="42.76 20.7 49.64 0 43.98 0 40.17 18.46 42.76 20.7"/><path class="header-class-1" d="M434.17,30.25A3.83,3.83,0,1,1,438,34,3.78,3.78,0,0,1,434.17,30.25ZM438,33.41a3.15,3.15,0,1,0-3.08-3.16A3.05,3.05,0,0,0,438,33.41Zm-.8-1h-.66V28.08h1.66c1,0,1.54.38,1.54,1.24a1.13,1.13,0,0,1-1.13,1.2l1.24,1.92h-.74L438,30.55h-.76ZM438,30c.56,0,1.06,0,1.06-.71s-.49-.64-.95-.64h-.9V30Z"/></g></g></svg>
