<?xml version="1.0" encoding="UTF-8"?> <svg xmlns="http://www.w3.org/2000/svg" viewBox="0 0 484 43.71661"><defs><style> .cls-1 { fill: #ff7070; } .cls-2 { fill: #ff918f; } .cls-3 { fill: #4d4dff; } .cls-4 { fill: #968fff; } </style></defs><g id="Layer_2" data-name="Layer 2"><g id="Layer_1-2" data-name="Layer 1"><g id="NeighborhoodNexus_Logo_SecondaryRegular_Black"><g><path d="M36.06119,28.82307l-1.34959.48186V2.98117a.282.282,0,0,1,.282-.282H39.105a.282.282,0,0,1,.282.282V33.69836a.282.282,0,0,1-.282.282H34.84256a.282.282,0,0,1-.21545-.10006L12.73283,7.95288l1.3978-.48215v4.32464a.282.282,0,0,1-.152.25025L9.8191,14.20583a.282.282,0,0,1-.412-.25025V2.98117a.282.282,0,0,1,.282-.282h4.31a.282.282,0,0,1,.216.10068Z"></path><path d="M65.08459,26.17211h3.89073a.28756.28756,0,0,1,.28191.33916A9.42442,9.42442,0,0,1,67.511,30.41359a9.88976,9.88976,0,0,1-3.80769,2.98847,13.2201,13.2201,0,0,1-5.61517,1.10837A14.31825,14.31825,0,0,1,51.34031,32.944,11.60463,11.60463,0,0,1,46.665,28.55789a12.46785,12.46785,0,0,1-1.687-6.53083,12.856,12.856,0,0,1,1.63874-6.57933,11.56026,11.56026,0,0,1,4.5548-4.41024A13.71678,13.71678,0,0,1,57.84717,9.447a12.95986,12.95986,0,0,1,6.60323,1.54231,9.42314,9.42314,0,0,1,3.95233,4.55488,16.39213,16.39213,0,0,1,1.07378,7.21942.28948.28948,0,0,1-.28564.27571H49.65329a8.82164,8.82164,0,0,0,1.32548,3.85576,7.46913,7.46913,0,0,0,2.892,2.62685,8.90908,8.90908,0,0,0,4.16923.93991,7.97817,7.97817,0,0,0,4.45838-1.181,5.5613,5.5613,0,0,0,2.32456-2.91666A.27738.27738,0,0,1,65.08459,26.17211ZM57.84717,13.44767a8.05107,8.05107,0,0,0-5.20549,1.66284,7.87163,7.87163,0,0,0-2.74739,4.362H64.73962a5.96384,5.96384,0,0,0-2.12075-4.45845A7.32506,7.32506,0,0,0,57.84717,13.44767Z"></path><path d="M79.92187.282V4.68243a.282.282,0,0,1-.282.282H74.42a.282.282,0,0,1-.282-.282V.282A.282.282,0,0,1,74.42,0h5.21987A.282.282,0,0,1,79.92187.282Zm-4.9235,9.64713h4.06315a.282.282,0,0,1,.282.282V33.69836a.282.282,0,0,1-.282.282H74.99837a.282.282,0,0,1-.282-.282V10.21111A.282.282,0,0,1,74.99837,9.92912Z"></path><path d="M95.5865,30.22073a12.507,12.507,0,0,1-5.49464-1.2048,9.63687,9.63687,0,0,1-4.00055-3.51854,10.08276,10.08276,0,0,1-1.49417-5.59121,10.37384,10.37384,0,0,1,1.446-5.56682,9.76279,9.76279,0,0,1,3.95234-3.615A12.13549,12.13549,0,0,1,95.5865,9.447a12.52393,12.52393,0,0,1,1.75927.12054,11.90949,11.90949,0,0,1,1.66291.36161h10.27357a.282.282,0,0,1,.282.282v3.77164a.28715.28715,0,0,1-.28428.2872,12.95564,12.95564,0,0,1-4.15-.702,32.76805,32.76805,0,0,1-3.80776-1.5182l-.19279-.24107a11.495,11.495,0,0,1,2.892,2.07266,8.92377,8.92377,0,0,1,1.87973,2.7474,8.33176,8.33176,0,0,1,.6748,3.37389A10.12408,10.12408,0,0,1,105.13,25.5215a9.40561,9.40561,0,0,1-3.92823,3.49443A12.69357,12.69357,0,0,1,95.5865,30.22073Zm6.37041,13.49588a.282.282,0,0,1-.282-.282V42.608a4.21128,4.21128,0,0,0-1.34958-3.51855A6.29769,6.29769,0,0,0,96.37307,38.029H92.01981a14.05254,14.05254,0,0,1-3.06065-.289,6.1591,6.1591,0,0,1-2.0967-.84348,3.43451,3.43451,0,0,1-1.20494-1.34973,3.97159,3.97159,0,0,1-.38558-1.75927,3.4192,3.4192,0,0,1,1.15673-2.81971A6.1453,6.1453,0,0,1,89.393,29.73887a12.55609,12.55609,0,0,1,3.639-.04822l2.55454.53008a21.2945,21.2945,0,0,0-4.16924.53037,1.63407,1.63407,0,0,0-1.42183,1.63873,1.3937,1.3937,0,0,0,.55425,1.15659,2.66753,2.66753,0,0,0,1.66292.43393h4.59426a15.76858,15.76858,0,0,1,4.89217.69883,6.74651,6.74651,0,0,1,3.39808,2.36167,7.41039,7.41039,0,0,1,1.25316,4.55488v1.83889a.282.282,0,0,1-.282.282ZM95.5865,26.31675a6.78246,6.78246,0,0,0,3.20529-.747,5.81812,5.81812,0,0,0,2.28942-2.1691,6.49378,6.49378,0,0,0,.86758-3.44622,6.87994,6.87994,0,0,0-.84348-3.51854,5.734,5.734,0,0,0-2.28942-2.217,7.09693,7.09693,0,0,0-6.43461,0,5.90526,5.90526,0,0,0-2.33764,2.19292,6.69357,6.69357,0,0,0-.86758,3.54265,6.49314,6.49314,0,0,0,.86758,3.44622,5.729,5.729,0,0,0,2.33764,2.1691A6.96585,6.96585,0,0,0,95.5865,26.31675Z"></path><path d="M114.43173,33.69836V.57128a.282.282,0,0,1,.282-.282H118.825a.282.282,0,0,1,.282.282V33.69836a.282.282,0,0,1-.282.282h-4.11129A.282.282,0,0,1,114.43173,33.69836Zm18.50121.282a.282.282,0,0,1-.282-.282V19.52074a7.35107,7.35107,0,0,0-.60247-3.18132,4.08084,4.08084,0,0,0-1.87981-1.90392,7.15221,7.15221,0,0,0-3.25343-.65062,7.83284,7.83284,0,0,0-3.85591.98812,8.18511,8.18511,0,0,0-4.24155,6.33826l-.04814-2.74739a11.01389,11.01389,0,0,1,1.03626-3.49444,10.63316,10.63316,0,0,1,2.02438-2.84382,8.6427,8.6427,0,0,1,2.89189-1.90391,9.5953,9.5953,0,0,1,3.63909-.67473,11.40092,11.40092,0,0,1,3.66311.55448A7.48369,7.48369,0,0,1,134.844,11.6884a7.79058,7.79058,0,0,1,1.8316,2.7471,9.80647,9.80647,0,0,1,.65061,3.6873V33.69836a.282.282,0,0,1-.282.282Z"></path><path d="M148.56352.28929a.282.282,0,0,1,.282.282V28.72664q0,1.06072-.14465,2.62686-.12785,1.386-.21809,2.37536a.27728.27728,0,0,1-.28035.25149h-3.75026a.282.282,0,0,1-.282-.282V.57128a.282.282,0,0,1,.282-.282Zm9.488,34.17292a8.7301,8.7301,0,0,1-4.72356-1.18069,8.58664,8.58664,0,0,1-2.96421-3.109,14.88326,14.88326,0,0,1-1.56649-4.09684,18.90029,18.90029,0,0,1-.482-4.09684,24.53241,24.53241,0,0,1,.4579-4.86827,12.25643,12.25643,0,0,1,1.51826-4.00041,7.19853,7.19853,0,0,1,2.96429-2.69917,11.63721,11.63721,0,0,1,10.55556.65061,11.38992,11.38992,0,0,1,4.00055,4.43434,13.825,13.825,0,0,1,1.47005,6.4829,13.64231,13.64231,0,0,1-1.49416,6.48262,11.31785,11.31785,0,0,1-4.04876,4.41023A10.54461,10.54461,0,0,1,158.05155,34.46221ZM156.702,30.41359a7.70112,7.70112,0,0,0,4.09691-1.06044,7.52887,7.52887,0,0,0,2.74732-2.96407,9.25477,9.25477,0,0,0,1.01223-4.41024,9.02948,9.02948,0,0,0-2.04849-6.09718,7.23948,7.23948,0,0,0-5.808-2.38578,8.251,8.251,0,0,0-4.28977,1.06016,6.64846,6.64846,0,0,0-2.675,2.96436,10.40914,10.40914,0,0,0-.89169,4.45844,10.08682,10.08682,0,0,0,.89169,4.2897,6.95359,6.95359,0,0,0,2.651,3.03639A7.9296,7.9296,0,0,0,156.702,30.41359Z"></path><path d="M185.76561,34.51043a14.30637,14.30637,0,0,1-6.531-1.49409,11.52817,11.52817,0,0,1-4.69938-4.2897,12.45081,12.45081,0,0,1-1.73516-6.69958,12.6736,12.6736,0,0,1,1.73516-6.77219,11.486,11.486,0,0,1,4.69938-4.31381,14.30637,14.30637,0,0,1,6.531-1.49409,14.01459,14.01459,0,0,1,6.48276,1.49409,11.56429,11.56429,0,0,1,4.65123,4.31381,12.6736,12.6736,0,0,1,1.73517,6.77219,12.45082,12.45082,0,0,1-1.73517,6.69958,11.60685,11.60685,0,0,1-4.65123,4.2897A14.01459,14.01459,0,0,1,185.76561,34.51043Zm0-4.04862a8.59517,8.59517,0,0,0,4.02465-.964,7.42042,7.42042,0,0,0,2.98833-2.86792,8.84987,8.84987,0,0,0,1.13269-4.60281,8.95368,8.95368,0,0,0-1.13269-4.65131,7.77528,7.77528,0,0,0-2.98833-2.91614,8.27182,8.27182,0,0,0-4.02465-1.01194,8.67746,8.67746,0,0,0-4.09691.98783,7.71644,7.71644,0,0,0-3.03654,2.892,8.90232,8.90232,0,0,0-1.1568,4.69952,8.84306,8.84306,0,0,0,1.13269,4.60281,7.33062,7.33062,0,0,0,3.03654,2.86792A8.98508,8.98508,0,0,0,185.76561,30.46181Z"></path><path d="M203.68817,9.92912h4.11136a.282.282,0,0,1,.282.282V33.69836a.282.282,0,0,1-.282.282h-4.11136a.282.282,0,0,1-.282-.282V10.21111A.282.282,0,0,1,203.68817,9.92912Zm12.58717,3.87239a.27932.27932,0,0,1-.276.27623,7.58376,7.58376,0,0,0-4.01369,1.15331,8.82655,8.82655,0,0,0-2.79553,2.81942,11.49729,11.49729,0,0,0-1.3978,3.25365l-.04822-2.74739a14.11394,14.11394,0,0,1,.28922-1.54259,13.00137,13.00137,0,0,1,.81937-2.36167,10.95711,10.95711,0,0,1,1.54237-2.48221,7.81859,7.81859,0,0,1,2.41-1.95213,7.1091,7.1091,0,0,1,3.17519-.767.29014.29014,0,0,1,.29514.28713Z"></path><path d="M220.99833,33.69836V.57128a.282.282,0,0,1,.282-.282h4.11129a.282.282,0,0,1,.282.282V33.69836a.282.282,0,0,1-.282.282h-4.11129A.282.282,0,0,1,220.99833,33.69836Zm18.50121.282a.282.282,0,0,1-.282-.282V19.52074a7.35107,7.35107,0,0,0-.60247-3.18132,4.08084,4.08084,0,0,0-1.87981-1.90392,7.15224,7.15224,0,0,0-3.25343-.65062,7.83284,7.83284,0,0,0-3.85591.98812,8.18511,8.18511,0,0,0-4.24155,6.33826l-.04814-2.74739a11.01389,11.01389,0,0,1,1.03626-3.49444,10.63316,10.63316,0,0,1,2.02438-2.84382,8.6427,8.6427,0,0,1,2.89189-1.90391,9.5953,9.5953,0,0,1,3.63909-.67473,11.40092,11.40092,0,0,1,3.66311.55448,7.48369,7.48369,0,0,1,2.81964,1.68695,7.79058,7.79058,0,0,1,1.8316,2.7471,9.80647,9.80647,0,0,1,.65061,3.6873V33.69836a.282.282,0,0,1-.282.282Z"></path><path d="M261.62976,34.51043a14.30637,14.30637,0,0,1-6.531-1.49409,11.52811,11.52811,0,0,1-4.69938-4.2897,12.45081,12.45081,0,0,1-1.73516-6.69958,12.6736,12.6736,0,0,1,1.73516-6.77219,11.486,11.486,0,0,1,4.69938-4.31381,14.30637,14.30637,0,0,1,6.531-1.49409,14.01452,14.01452,0,0,1,6.48275,1.49409,11.56425,11.56425,0,0,1,4.65124,4.31381,12.6736,12.6736,0,0,1,1.73517,6.77219,12.45082,12.45082,0,0,1-1.73517,6.69958,11.60681,11.60681,0,0,1-4.65124,4.2897A14.01452,14.01452,0,0,1,261.62976,34.51043Zm0-4.04862a8.59517,8.59517,0,0,0,4.02465-.964,7.42042,7.42042,0,0,0,2.98833-2.86792,8.84987,8.84987,0,0,0,1.13269-4.60281,8.95368,8.95368,0,0,0-1.13269-4.65131,7.77528,7.77528,0,0,0-2.98833-2.91614,8.27182,8.27182,0,0,0-4.02465-1.01194,8.67746,8.67746,0,0,0-4.09691.98783,7.71644,7.71644,0,0,0-3.03654,2.892,8.90232,8.90232,0,0,0-1.1568,4.69952,8.84306,8.84306,0,0,0,1.13269,4.60281,7.33062,7.33062,0,0,0,3.03654,2.86792A8.98508,8.98508,0,0,0,261.62976,30.46181Z"></path><path d="M290.98269,34.51043a14.3063,14.3063,0,0,1-6.531-1.49409,11.52811,11.52811,0,0,1-4.69938-4.2897,12.45082,12.45082,0,0,1-1.73517-6.69958,12.6736,12.6736,0,0,1,1.73517-6.77219,11.486,11.486,0,0,1,4.69938-4.31381,14.3063,14.3063,0,0,1,6.531-1.49409,14.01459,14.01459,0,0,1,6.48276,1.49409,11.56423,11.56423,0,0,1,4.65123,4.31381,12.6736,12.6736,0,0,1,1.73517,6.77219,12.45082,12.45082,0,0,1-1.73517,6.69958,11.60679,11.60679,0,0,1-4.65123,4.2897A14.01459,14.01459,0,0,1,290.98269,34.51043Zm0-4.04862a8.59521,8.59521,0,0,0,4.02466-.964,7.42046,7.42046,0,0,0,2.98832-2.86792,8.84987,8.84987,0,0,0,1.13269-4.60281,8.95368,8.95368,0,0,0-1.13269-4.65131,7.77532,7.77532,0,0,0-2.98832-2.91614,8.27186,8.27186,0,0,0-4.02466-1.01194,8.67746,8.67746,0,0,0-4.09691.98783,7.71651,7.71651,0,0,0-3.03654,2.892,8.90232,8.90232,0,0,0-1.1568,4.69952,8.843,8.843,0,0,0,1.1327,4.60281,7.33059,7.33059,0,0,0,3.03653,2.86792A8.98508,8.98508,0,0,0,290.98269,30.46181Z"></path><path d="M318.60039,34.46221a10.54113,10.54113,0,0,1-5.6875-1.59052,11.30637,11.30637,0,0,1-4.04869-4.41023A13.63294,13.63294,0,0,1,307.37,21.97884a14.01242,14.01242,0,0,1,1.446-6.4829,11.2081,11.2081,0,0,1,3.97644-4.43434,10.563,10.563,0,0,1,5.808-1.61463,10.42529,10.42529,0,0,1,4.7717.964,7.40872,7.40872,0,0,1,2.96429,2.69917,11.95537,11.95537,0,0,1,1.54237,4.00041,24.58629,24.58629,0,0,1,.4579,4.86827,18.94889,18.94889,0,0,1-.482,4.09684,14.9058,14.9058,0,0,1-1.56648,4.09684,8.58672,8.58672,0,0,1-2.96421,3.109A8.73215,8.73215,0,0,1,318.60039,34.46221Zm1.30137-4.04862a8.028,8.028,0,0,0,4.362-1.10866,6.96355,6.96355,0,0,0,2.651-3.03639,10.09869,10.09869,0,0,0,.89169-4.2897,10.18991,10.18991,0,0,0-.9158-4.45844,6.845,6.845,0,0,0-2.67507-2.96436,8.22372,8.22372,0,0,0-4.3138-1.06016,7.25287,7.25287,0,0,0-5.78386,2.38578,8.96064,8.96064,0,0,0-2.07259,6.09718,9.25477,9.25477,0,0,0,1.01222,4.41024,7.41591,7.41591,0,0,0,2.79554,2.96407A7.76436,7.76436,0,0,0,319.90176,30.41359ZM328.08842.28929h4.11129a.282.282,0,0,1,.282.282V33.69836a.282.282,0,0,1-.282.282h-3.75954a.27777.27777,0,0,1-.27993-.24113q-.12628-.99213-.23334-2.38572-.12087-1.5657-.12047-2.62686V.57128A.282.282,0,0,1,328.08842.28929Z"></path><path d="M372.22762,28.82571l-1.34959.48186V2.98381a.282.282,0,0,1,.282-.282h4.11137a.282.282,0,0,1,.282.282V33.701a.282.282,0,0,1-.282.282H371.009a.282.282,0,0,1-.21545-.10006L348.89926,7.95552l1.3978-.48215V33.701a.282.282,0,0,1-.282.282h-4.1595a.282.282,0,0,1-.282-.282V2.98381a.282.282,0,0,1,.282-.282h4.31a.282.282,0,0,1,.216.10068Z"></path><path d="M401.251,26.17475h3.89073a.28756.28756,0,0,1,.28191.33916,9.42442,9.42442,0,0,1-1.74619,3.90232,9.88969,9.88969,0,0,1-3.80769,2.98847,13.2201,13.2201,0,0,1-5.61517,1.10837,14.31814,14.31814,0,0,1-6.74787-1.56642,11.60454,11.60454,0,0,1-4.67535-4.38612,12.468,12.468,0,0,1-1.68694-6.53083,12.85593,12.85593,0,0,1,1.63873-6.57933,11.56016,11.56016,0,0,1,4.55481-4.41024,13.71677,13.71677,0,0,1,6.67561-1.59052,12.95983,12.95983,0,0,1,6.60323,1.54231,9.42314,9.42314,0,0,1,3.95233,4.55488,16.392,16.392,0,0,1,1.07378,7.21941.28947.28947,0,0,1-.28564.27571H385.81972a8.82168,8.82168,0,0,0,1.32548,3.85577,7.46913,7.46913,0,0,0,2.892,2.62685,8.90911,8.90911,0,0,0,4.16923.9399,7.97815,7.97815,0,0,0,4.45838-1.181,5.5613,5.5613,0,0,0,2.32456-2.91666A.27738.27738,0,0,1,401.251,26.17475ZM394.0136,13.45031a8.05107,8.05107,0,0,0-5.20549,1.66284,7.87163,7.87163,0,0,0-2.74739,4.362h14.84533a5.96384,5.96384,0,0,0-2.12074-4.45845A7.32511,7.32511,0,0,0,394.0136,13.45031Z"></path><path d="M408.43808,9.93176h5.05518a.282.282,0,0,1,.22162.10763l7.91642,10.06228,10.58129,13.42477a.282.282,0,0,1-.22147.45655H427.024a.282.282,0,0,1-.22367-.11025l-8.20558-10.68646L408.21905,10.39137A.282.282,0,0,1,408.43808,9.93176Zm22.97628,0a.282.282,0,0,1,.22184.45607L421.6313,23.13807l-8.01287,10.73164a.282.282,0,0,1-.226.11328h-4.96322a.282.282,0,0,1-.22109-.457L418.8357,20.10167l7.43455-10.05556a.282.282,0,0,1,.22674-.11435Z"></path><path d="M455.22557,22.65621l.04822,1.44587q-.09719.62723-.36154,1.8557a15.59,15.59,0,0,1-.86758,2.67507,12.47617,12.47617,0,0,1-1.63874,2.79561,8.22846,8.22846,0,0,1-2.62685,2.217,8.05841,8.05841,0,0,1-3.90412.86759,12.30589,12.30589,0,0,1-3.20522-.43365,8.62436,8.62436,0,0,1-2.96429-1.44588,7.14819,7.14819,0,0,1-2.16895-2.7715,10.43376,10.43376,0,0,1-.81937-4.41023V10.21375a.282.282,0,0,1,.282-.282h4.11136a.282.282,0,0,1,.282.282V24.43958a6.974,6.974,0,0,0,.72294,3.47033,4.06072,4.06072,0,0,0,2.00028,1.78338,7.5401,7.5401,0,0,0,2.91607.53008,7.25191,7.25191,0,0,0,4.24148-1.2048,8.631,8.631,0,0,0,2.69918-2.96436A11.14043,11.14043,0,0,0,455.22557,22.65621ZM459.32971,33.983h-4.11136a.282.282,0,0,1-.282-.282V10.21375a.282.282,0,0,1,.282-.282h4.11136a.282.282,0,0,1,.282.282V33.701A.282.282,0,0,1,459.32971,33.983Z"></path><path d="M464.833,26.17475h3.79977a.27935.27935,0,0,1,.27215.23122,4.773,4.773,0,0,0,1.74387,2.9016,6.513,6.513,0,0,0,4.19334,1.20509,6.93983,6.93983,0,0,0,2.651-.40983,2.9149,2.9149,0,0,0,1.39774-1.10837,2.99635,2.99635,0,0,0,.43379-1.61462,2.39036,2.39036,0,0,0-.57837-1.687,4.09574,4.09574,0,0,0-1.6388-1.01223q-1.06074-.38529-2.55454-.77115-1.59056-.43394-3.20521-1.01223a15.4951,15.4951,0,0,1-2.94018-1.39795,6.62787,6.62787,0,0,1-2.12074-2.04827,5.33942,5.33942,0,0,1-.79526-2.96436,6.27,6.27,0,0,1,.65068-2.84382,6.4159,6.4159,0,0,1,1.87974-2.24114,9.04416,9.04416,0,0,1,2.892-1.44587,12.44568,12.44568,0,0,1,3.639-.50626,10.13062,10.13062,0,0,1,4.69946.98812,6.79849,6.79849,0,0,1,2.89189,2.7715,8.668,8.668,0,0,1,1.0263,3.8461.28859.28859,0,0,1-.28638.29895h-3.5686a.2823.2823,0,0,1-.27305-.23327,4.594,4.594,0,0,0-1.38076-2.75491,4.777,4.777,0,0,0-3.15707-.91579,5.38076,5.38076,0,0,0-3.22933.81936,2.6131,2.6131,0,0,0-1.10858,2.21559,2.12521,2.12521,0,0,0,.71489,1.61583,6.79566,6.79566,0,0,0,2.12886,1.18122q1.30137.48214,2.98832,1.01222,1.542.5308,2.9884,1.06016a11.79656,11.79656,0,0,1,2.57863,1.30152,5.68559,5.68559,0,0,1,1.78338,1.928,5.94546,5.94546,0,0,1,.65069,2.94,6.42071,6.42071,0,0,1-1.06037,3.6873,6.86856,6.86856,0,0,1-3.08475,2.434,12.4597,12.4597,0,0,1-4.91635.86759,13.84006,13.84006,0,0,1-4.41016-.62651,9.35026,9.35026,0,0,1-3.06065-1.63874,8.53391,8.53391,0,0,1-1.87981-2.145,7.0716,7.0716,0,0,1-.89169-2.19292,5.95327,5.95327,0,0,1-.14516-1.48038A.2778.2778,0,0,1,464.833,26.17475Z"></path></g><g><path class="cls-1" d="M13.43749,15.75531,10.02884,18.4657a5.16017,5.16017,0,0,0-1.93169,4.45623l.12459,1.53558a2.32538,2.32538,0,0,0,2.00394,2.11606h0a2.32538,2.32538,0,0,0,2.61758-1.9876l1.16824-8.50325A.356.356,0,0,0,13.43749,15.75531Z"></path><path class="cls-2" d="M.07816,27.33482l2.7476,3.42575A5.16016,5.16016,0,0,0,7.27169,32.675l1.51-.12348a2.32539,2.32539,0,0,0,2.1146-2.00384l.00016-.00119A2.32539,2.32539,0,0,0,8.90882,27.929L.40556,26.76079A.35605.35605,0,0,0,.07816,27.33482Z"></path><path class="cls-3" d="M11.65779,40.69405l3.42573-2.74764a5.16016,5.16016,0,0,0,1.9144-4.446l-.12349-1.51a2.3254,2.3254,0,0,0-2.00387-2.11459l-.00118-.00016a2.3254,2.3254,0,0,0-2.61755,1.98766l-1.16807,8.50328A.35606.35606,0,0,0,11.65779,40.69405Z"></path><path class="cls-4" d="M25.01692,29.11429l-2.7105-3.40857a5.16016,5.16016,0,0,0-4.45629-1.93155l-1.53557.12464a2.32539,2.32539,0,0,0-2.116,2.004h0a2.3254,2.3254,0,0,0,1.98769,2.61753l8.50328,1.168A.35606.35606,0,0,0,25.01692,29.11429Z"></path></g></g></g></g></svg> 